<svg width="108" height="108" viewBox="0 0 108 108" fill="none" xmlns="http://www.w3.org/2000/svg">
<g clip-path="url(#clip0_12_590)">
<path d="M54 108C83.8234 108 108 83.8234 108 54C108 24.1766 83.8234 0 54 0C24.1766 0 0 24.1766 0 54C0 83.8234 24.1766 108 54 108Z" fill="#32BA7C"/>
<path d="M40.202 78.3596L67.9686 106.126C90.9654 99.9937 108 79.041 108 54C108 53.489 108 52.9779 108 52.4669L86.1957 32.3659L40.202 78.3596Z" fill="#0AA06E"/>
<path d="M55.3626 66.0947C57.7475 68.4796 57.7475 72.5679 55.3626 74.9528L50.4226 79.8929C48.0377 82.2777 43.9494 82.2777 41.5645 79.8929L19.9305 58.0884C17.5456 55.7036 17.5456 51.6152 19.9305 49.2304L24.8705 44.2903C27.2554 41.9055 31.3437 41.9055 33.7286 44.2903L55.3626 66.0947Z" fill="white"/>
<path d="M74.271 28.448C76.6559 26.0631 80.7442 26.0631 83.1291 28.448L88.0691 33.3881C90.454 35.7729 90.454 39.8613 88.0691 42.2461L50.5928 79.5521C48.2079 81.937 44.1196 81.937 41.7347 79.5521L36.7947 74.612C34.4098 72.2272 34.4098 68.1389 36.7947 65.754L74.271 28.448Z" fill="white"/>
</g>
<defs>
<clipPath id="clip0_12_590">
<rect width="108" height="108" fill="white"/>
</clipPath>
</defs>
</svg>
